<svg version="1.2" xmlns="http://www.w3.org/2000/svg" viewBox="0 0 1411 381" width="1411" height="381">
	<defs>
		<clipPath clipPathUnits="userSpaceOnUse" id="cp1">
			<path d="m240 32h82.07v77.28h-82.07z"/>
		</clipPath>
		<clipPath clipPathUnits="userSpaceOnUse" id="cp2">
			<path d="m303.24 133.02l-84.41-39.95 36.32-79.55 84.42 39.95z"/>
		</clipPath>
		<clipPath clipPathUnits="userSpaceOnUse" id="cp3">
			<path d="m303.24 133.02l-84.41-39.95 36.32-79.55 84.42 39.95z"/>
		</clipPath>
		<clipPath clipPathUnits="userSpaceOnUse" id="cp4">
			<path d="m1304.43 32h81.45v77.25h-81.45z"/>
		</clipPath>
		<clipPath clipPathUnits="userSpaceOnUse" id="cp5">
			<path d="m1320.13 9.85l85 33.89-29.72 82.78-84.99-33.88z"/>
		</clipPath>
		<clipPath clipPathUnits="userSpaceOnUse" id="cp6">
			<path d="m1320.13 9.85l85 33.89-29.72 82.78-84.99-33.88z"/>
		</clipPath>
		<clipPath clipPathUnits="userSpaceOnUse" id="cp7">
			<path d="m1070.64 109l145.79 15.31-25.64 243.84-145.79-15.32z"/>
		</clipPath>
		<clipPath clipPathUnits="userSpaceOnUse" id="cp8">
			<path d="m1201.55 130.34l-25.55 229.75-115.27-12.83 25.55-229.76z"/>
		</clipPath>
		<clipPath clipPathUnits="userSpaceOnUse" id="cp9">
			<path d="m1214.55 40.3l-2.94 347.11-164.75-1.4 2.93-347.11z"/>
		</clipPath>
		<clipPath clipPathUnits="userSpaceOnUse" id="cp10">
			<path d="m1202.39 120.31l74.19 0.38-13.88 234.53-74.19-0.37z"/>
		</clipPath>
	</defs>
	<style>
		.s0 { fill: #7a9363 } 
		.s1 { fill: #a14b47 } 
	</style>
	<path class="s0" d="m244.75 69.26q0-16.02 9.84-25.64 9.83-9.62 25.41-9.62 16.03 0 25.87 9.62 9.83 9.62 9.84 25.64-0.01 16.02-9.84 25.86-9.84 9.84-25.87 9.84-15.58 0-25.41-9.84-9.84-9.84-9.84-25.86zm77.36 87.42c0 15.57 0.89 29.45 0.89 41.45 0 14 1.5 30 1.5 46 0 16 4.02 87.79-2.39 97.5-1.07 9.46-18.59-91.34-16.61-80.5 1.98 10.83-10.53-47.34-3.5-33 1.22 2.44 22.46 11 22.5 16 0 6 4.78 101.18 4.48 104.85q-0.47 5.48-11.45 5.48h-66.38c-4.27 0-12.7 1.41-15.15-1.33-2.44-2.75-3-7.5-3-11.5 0-2.55 0.5-6.5 1-8.5 2-14.5 3.5-28 5.93-41.84q4.82-20.16 9.16-39.37 4.35-19.24 3.21-38.46-1.15-19.23-13.05-38.46-5.95-9.6-5.73-16.69c0.16-4.74 0.92-30.91 6.41-32.75h68.45c6.12 0 8.78 0.84 10.76 8.01q2.97 10.76 2.97 23.11z"/>
	<g id="Clip-Path" clip-path="url(#cp1)">
		<g>
			<g id="Clip-Path" clip-path="url(#cp2)">
				<g>
					<g id="Clip-Path" clip-path="url(#cp3)">
						<g>
							<path class="s1" d="m307.16 102.13c0 0 15.42-12.38 14.36-22.76-1.05-10.37 0.92-27.89-11.04-36.59-11.97-8.7-37.29-11.99-47.39-8.19-10.1 3.8-27.25 21.33-20.58 45.59 6.67 24.27 26.19 36.23 64.65 21.95z"/>
						</g>
					</g>
				</g>
			</g>
		</g>
	</g>
	<path class="s0" d="m1308.75 69.26q0-16.02 9.84-25.64 9.83-9.62 25.41-9.62 16.03 0 25.87 9.62 9.83 9.62 9.84 25.64-0.01 16.02-9.84 25.86-9.84 9.84-25.87 9.84-15.58 0-25.41-9.84-9.84-9.84-9.84-25.86zm77.36 87.42c0 15.57 0.89 29.45 0.89 41.45 0 14 1.5 30 1.5 46 0 16 4.02 87.79-2.39 97.5-1.07 9.46-18.59-91.34-16.61-80.5 1.98 10.83-10.53-47.34-3.5-33 1.22 2.44 22.45 11 22.5 16 0 6 4.78 101.18 4.48 104.85q-0.47 5.48-11.45 5.48h-66.38c-4.27 0-12.7 1.41-15.15-1.33-2.44-2.75-3-7.5-3-11.5 0-2.55 0.5-6.5 1-8.5 2-14.5 3.5-28 5.93-41.84q4.81-20.16 9.16-39.37 4.35-19.24 3.21-38.46-1.16-19.23-13.05-38.46-5.95-9.6-5.73-16.69c0.16-4.74 0.92-30.91 6.41-32.75h68.45c6.12 0 8.78 0.84 10.76 8.01q2.97 10.76 2.97 23.11z"/>
	<g id="Clip-Path" clip-path="url(#cp4)">
		<g>
			<g id="Clip-Path" clip-path="url(#cp5)">
				<g>
					<g id="Clip-Path" clip-path="url(#cp6)">
						<g>
							<path class="s1" d="m1318.03 40.59c0 0-14.22 13.71-12.45 24.15 1.77 10.42 1.08 28.33 13.4 36.23 12.33 7.91 37.36 9.33 46.97 4.7 9.62-4.62 25.17-23.68 16.92-47.75-8.25-24.08-28.2-34.72-64.84-17.33z"/>
						</g>
					</g>
				</g>
			</g>
		</g>
	</g>
	<path class="s0" d="m135.76 187.19c0-14.5-1-39.5-1.5-42-0.5-2.5-0.5-4-1-7.5-0.5-3.5-1-8-1.5-9.5-0.5-1.5-3.05-4.07 1.83-4.07h67.3c4.88 0 10.37-1.43 12.87 5.57 0 5 0 6.5 0 11 0 9 0 17.5 0 39 0 21.5 0 40.5 0 40.5 0 0 0.5 0.5 0 48-0.16 16 0 33.55 0 44 0 12 0 19 0 27.5 0 13.33-3.49 13.33-16 13.33-12.5 0-19.15 0-32.57 0h-73.71q-21.99 0-33.21-9.84-11.21-9.83-15.56-24.94-4.34-15.12-4.58-31.14-0.22-16.02-0.22-27.93 0-16.02-2.98-37.53-2.97-21.52-8.01-42.35-5.04-20.83-11.9-35.03-1.37-2.75-3.9-7.55-2.51-4.8-2.05-8.69 0.46-3.9 8.24-3.9h72.34q7.31 0 9.38 5.96 2.06 5.95 2.06 9.14 0 22.89-1.14 43.27-1.15 20.38-0.92 40.52 0.22 20.14 3.43 43.03 2.29 13.74 5.72 24.72 3.44 10.98 8.94 10.98 3.65 0 5.26-4.8 1.6-4.8 2.75-11.21 1.14-6.41 1.59-10.07 2.75-14.66 4.8-29.98 2.06-15.34 3.43-28.85c0.92-9.01 0.81-16.12 0.81-21.64 0-4 0-8 0-8z"/>
	<path class="s0" d="m503.77 343.42q-9.62 7.31-19.23 10.96-9.62 3.68-28.37 3.68-31.61 0-53.81-12.82-22.19-12.82-35.24-34.11-13.06-21.28-17.17-46.69-4.12-25.41 0.46-50.81 4.58-25.42 17.17-46.71 12.59-21.28 33.41-34.09 20.84-12.83 49.21-12.83c16.19 0 27.92 4.1 36.92 10.6 12 9 16.78 13.18 18 20.5 0.91 0-23.15-19.64-23-22.39 0.16-2.74 16.62 10.3 19.56 8.35 2.94-1.96 4.94-5.46 6.66-8.35 2.78-2.61 5.65-4.13 10.53-4.13h50.36q10.98 0 11.45 5.5c0.3 3.65 0.83 3.92-2 12.42-1.5 4.5-1.5 4.5-4 11-10.5 27.3-10.5 27.11-10.5 64.56 0 37.44 0.61 37.5 5.05 61.5 4.45 24 8.46 43.1 13.95 63.86 0.92 3.05 3 4.64 0 10.64-2 0-10.13-0.12-15.31-0.12h-50.36q-5.04 0-8.47-3.2-3.44-3.2-5.27-7.32zm-47.6-164.36c-11 0-17.28 1.44-23.99 8-6.71 6.56-10.41 10.77-13 21-2.6 10.22-3.77 19.39-3 31 0.76 11.59 1.68 20.27 5.5 30.5 3.81 10.21 8.24 18.93 14.5 25.5 6.26 6.56 12.05 8.5 19.99 8.5 10.98 0 17.14-3.94 24.01-10.5 6.86-6.57 10.95-13.29 14-23.5 3.05-10.23 3.19-16.41 2.73-28-0.46-11.61-2.07-23.28-5.73-33.5-3.66-10.23-8.29-14.44-15-21-6.71-6.56-10.86-8-20.01-8z"/>
	<path class="s0" d="m705.62 358.27q-35.72 0-58.86-13.05-23.14-13.05-35.51-34.56-12.36-21.52-14.65-47.39-2.28-25.86 4.12-51.5 6.41-25.64 20.62-47.15 14.2-21.52 35.04-34.57 20.84-13.05 46.95-13.05 24.27 0 38.24 8.71c9.32 5.8 21.04 14.79 27.04 21.29 6.01 6.5 10.32 17.93 10.01 26.32-0.3 8.39-1.5 18.68-5.65 23.81-4.15 5.13-6.86 6.87-13.36 8.37-6.51 1.5-10.8-1.63-18.51-7-7.72-5.37-8.01-5.5-11.51-8.5-3.5-3-7.01-5-12.51-7.5-5.5-2.5-5.5-3-15.58-4.14-10.07-1.14-15.94 0.14-22.95 7.64-7 7.5-7.98 8.97-11.5 19.5-3.51 10.52-2.44 21.25-2.89 33-0.46 11.76-0.01 22.71 2.89 33.25 2.9 10.52 5.24 16.53 11.5 23.25 6.27 6.71 13.48 9.5 22.95 9.5 10.08 0 18.32-0.25 24.74-5.75q9.61-8.23 16.72-18.99 7.11-10.76 13.74-19 6.64-8.25 16.27-8.25 7.32 0 10.29 5.72 2.99 5.73 2.99 13.52 0 45.78-18.1 66.15-18.08 20.37-62.53 20.37z"/>
	<path class="s0" d="m952.77 342.42q-9.61 7.31-19.23 10.96-9.62 3.68-28.37 3.68-31.61 0-53.81-12.82-22.2-12.82-35.24-34.11-13.06-21.28-17.17-46.69-4.12-25.41 0.46-50.81 4.58-25.42 17.17-46.71 12.59-21.28 33.41-34.09 20.84-12.83 49.21-12.83c16.19 0 27.92 4.1 36.92 10.6 12 9 16.78 13.18 18 20.5 0.91 0-23.15-19.64-23-22.39 0.16-2.74 16.62 10.3 19.56 8.35 2.94-1.96 4.94-5.46 6.66-8.35 2.78-2.61 5.65-4.13 10.53-4.13h50.36q10.98 0 11.45 5.5c0.3 3.65 0.83 3.92-2 12.42-1.5 4.5-1.5 4.5-4 11-10.5 27.3-10.5 27.11-10.5 64.56 0 37.44 0.61 37.5 5.05 61.5 4.45 24 8.46 43.1 13.95 63.86 0.92 3.05 3 4.64 0 10.64-2 0-10.13-0.12-15.31-0.12h-50.36q-5.04 0-8.47-3.2-3.44-3.2-5.27-7.32zm-47.6-164.36c-11 0-17.28 1.44-23.99 8-6.71 6.56-10.41 10.77-13 21-2.6 10.22-3.77 19.39-3 31 0.76 11.59 1.68 20.27 5.5 30.5 3.81 10.21 8.24 18.93 14.5 25.5 6.26 6.56 12.05 8.5 19.99 8.5 10.98 0 17.14-3.94 24.01-10.5 6.86-6.57 10.95-13.29 14-23.5 3.05-10.23 3.19-16.41 2.73-28-0.46-11.61-2.07-23.28-5.73-33.5-3.66-10.23-8.29-14.44-15-21-6.71-6.56-10.86-8-20.01-8z"/>
	<g id="Clip-Path" clip-path="url(#cp7)">
		<g>
			<g id="Clip-Path" clip-path="url(#cp8)">
				<g>
					<g id="Clip-Path" clip-path="url(#cp9)">
						<g>
							<path class="s1" d="m1212.93 133.28c0.06-12.63 0.96-47.23 0.76-51.04-44.49-42.76-65.41 51.98-70.48 87.72-4.18 23.43-9.03 82.94-40.32 78.76-47.73-9.41-41.58-77.5-53.77-123.54l-2.09 248.99c28.21 11.44 64.71 8.25 92.13-19.1 38.9-38.84 32.28-158.3 49.3-207.98 10.11-29.48 21.44-10.13 23.96-10.1 0.35 0 0.5-1.38 0.51-3.71z"/>
						</g>
					</g>
				</g>
			</g>
		</g>
	</g>
	<g id="Clip-Path" clip-path="url(#cp10)">
		<g>
			<path class="s1" d="m1281.38 204.2c1.24-18.54 16.21-52.1 16.3-57.69-54.75-62.55-76.84 63.73-86.83 116.22-7.68 34.42-10.25 107.76-51.16 101.78-62.11-13.56 119.89-17.4 99.09-2.76l-41.67 32.94c36.16 16.64-30.38-7.9 8.53-3.87 54.91-57.23 20.06-94.91 47.11-167.93 0.77-6.54 13.26 0.84 13.72-2.71 0.38-2.96-15.71 8.55-12.09-26.99 3.62-35.54 3.81-28.22 4.94-48.86 3.27-59.7-1.5 63.3 2.06 59.87z"/>
		</g>
	</g>
</svg>